HIERARCHY
ROOT hip
{
	OFFSET 0.000000 0.000000 0.000000 
	CHANNELS 6 Xposition Yposition Zposition Xrotation Zrotation Yrotation
	JOINT abdomen
	{
		OFFSET 0.000000 3.402643 0.000000 
		CHANNELS 3 Xrotation Zrotation Yrotation
		JOINT chest
		{
			OFFSET 0.000000 8.438565 -0.680529 
			CHANNELS 3 Xrotation Zrotation Yrotation
			JOINT neck
			{
				OFFSET 0.000000 10.207942 -0.272212 
				CHANNELS 3 Xrotation Zrotation Yrotation
				JOINT head
				{
					OFFSET 0.000000 3.130431 0.000000 
					CHANNELS 3 Xrotation Zrotation Yrotation
					End Site
					{
						OFFSET 0.000000 3.130435 0.000000 
					}
				}
			}
			JOINT lCollar
			{
				OFFSET 3.470700 6.669187 -0.816635 
				CHANNELS 3 Yrotation Zrotation Xrotation
				JOINT lShldr
				{
					OFFSET 3.198488 0.000000 0.000000 
					CHANNELS 3 Zrotation Yrotation Xrotation
					JOINT lForeArm
					{
						OFFSET 10.139888 0.000000 0.000000 
						CHANNELS 3 Yrotation Zrotation Xrotation
						JOINT lHand
						{
							OFFSET 8.370511 0.000000 0.000000 
							CHANNELS 3 Zrotation Yrotation Xrotation
							End Site
							{
								OFFSET 4.083176 0.000000 0.000000 
							}
						}
					}
				}
			}
			JOINT rCollar
			{
				OFFSET -3.470700 6.669187 -0.816635 
				CHANNELS 3 Yrotation Zrotation Xrotation
				JOINT rShldr
				{
					OFFSET -3.198488 0.000000 0.000000 
					CHANNELS 3 Zrotation Yrotation Xrotation
					JOINT rForeArm
					{
						OFFSET -10.139888 0.000000 0.000000 
						CHANNELS 3 Yrotation Zrotation Xrotation
						JOINT rHand
						{
							OFFSET -8.370511 0.000000 0.000000 
							CHANNELS 3 Zrotation Yrotation Xrotation
							End Site
							{
								OFFSET -4.083176 0.000000 0.000000 
							}
						}
					}
				}
			}
		}
	}
	JOINT lThigh
	{
		OFFSET 5.308129 -1.633274 1.361059 
		CHANNELS 3 Xrotation Zrotation Yrotation
		JOINT lShin
		{
			OFFSET -2.041588 -20.007561 0.000000 
			CHANNELS 3 Xrotation Zrotation Yrotation
			JOINT lFoot
			{
				OFFSET 0.000000 -19.190928 -1.224953 
				CHANNELS 3 Xrotation Yrotation Zrotation
				End Site
				{
					OFFSET 0.000000 -2.449906 4.627600 
				}
			}
		}
	}
	JOINT rThigh
	{
		OFFSET -5.308129 -1.633274 1.361059 
		CHANNELS 3 Xrotation Zrotation Yrotation
		JOINT rShin
		{
			OFFSET 2.041588 -20.007561 0.000000 
			CHANNELS 3 Xrotation Zrotation Yrotation
			JOINT rFoot
			{
				OFFSET 0.000000 -19.190928 -1.224953 
				CHANNELS 3 Xrotation Yrotation Zrotation
				End Site
				{
					OFFSET 0.000000 -2.449906 4.627600 
				}
			}
		}
	}
}
MOTION
Frames: 16
Frame Time: 0.033333
1.980814 16.362511 0.296762 -0.532627 -28.348576 90.738686 0.000000 0.000000 0.000000 23.903780 -5.449298 4.171632 13.526209 0.611315 -0.011022 -40.332603 7.077604 3.307976 -39.196407 30.000000 25.000000 11.684846 -48.496464 -45.490253 -10.972125 20.934797 -14.242642 -16.039869 11.583380 -63.454929 26.336739 -30.000000 25.000000 -32.226280 51.282360 -0.936020 -16.992775 -5.050292 -62.169029 25.540140 -4.075840 -80.914505 -130.156525 23.476891 -5.056490 131.007385 10.883660 -0.081966 -14.856404 -20.715403 0.647477 -131.345520 -10.185460 4.439886 133.476990 0.647639 8.866534 -11.491022 -12.690276 13.805795 
1.930069 16.270321 0.234487 0.055270 -27.939440 90.714737 0.000000 0.000000 0.000000 23.999855 -5.847497 4.082117 13.859139 0.878072 0.012252 -40.152679 6.251126 2.999582 -39.700096 30.000000 25.000000 12.013093 -48.078133 -45.346775 -11.213516 20.352009 -15.492514 -15.757710 12.161886 -63.590973 25.758900 -30.000000 25.000000 -31.852396 51.663788 -1.270239 -16.661850 -5.162837 -61.302574 24.480816 -4.604001 -80.904800 -129.876343 23.601828 -4.939040 131.103836 10.364496 -0.149628 -14.605735 -20.949602 0.954609 -131.495117 -10.146781 4.465285 133.613678 0.062258 8.768574 -11.473745 -12.725280 13.691777 
1.861290 16.200319 0.179400 0.494728 -27.342880 90.503662 0.000000 0.000000 0.000000 24.211998 -6.177085 3.996743 14.192058 1.068270 0.019541 -39.919937 5.794402 2.918997 -39.821510 30.000000 25.000000 12.214562 -47.785789 -45.227524 -11.320645 19.295017 -16.699297 -14.298964 12.145364 -63.381382 25.585407 -30.000000 25.000000 -31.643976 51.667046 -1.144941 -16.421663 -5.210825 -59.743885 20.753565 -4.848829 -80.891968 -129.559525 23.837669 -4.792882 131.170517 10.080968 -0.216246 -14.144682 -21.078392 1.347936 -131.399399 -10.048810 4.479268 133.695618 -0.289725 8.671243 -11.214975 -12.498967 13.831832 
1.748142 16.122028 0.115065 0.721076 -26.638805 90.291206 0.000000 0.000000 0.000000 24.424644 -6.300511 3.952476 14.680701 1.119602 0.024511 -39.518753 5.740819 2.989959 -39.790707 30.000000 25.000000 12.256572 -47.845722 -45.283642 -11.270742 17.933172 -18.147564 -11.622727 11.190266 -62.798309 25.527950 -30.000000 25.000000 -31.450819 51.552784 -0.832459 -16.580788 -5.511583 -56.290234 16.231541 -5.056437 -80.969795 -129.345245 23.971651 -4.696093 131.184799 9.880251 -0.266147 -13.369760 -21.104929 1.833934 -131.223022 -10.068195 4.486411 133.640167 -0.514842 8.628421 -10.557912 -12.218783 14.295817 
1.625190 16.025906 0.112860 0.445905 -26.112595 90.105019 0.000000 0.000000 0.000000 24.393219 -6.061360 4.006437 15.177679 0.877707 0.006723 -39.022552 5.895638 3.293711 -39.300697 30.000000 25.000000 11.593614 -48.199242 -45.295723 -11.640993 16.995382 -18.348604 -9.235036 10.200225 -62.332817 25.867624 -30.000000 25.000000 -31.315184 51.479759 -0.637306 -16.306742 -5.792093 -55.018791 15.207546 -5.802134 -80.935173 -129.588043 24.013319 -4.756391 131.150909 10.083622 -0.216534 -12.598432 -20.946613 2.206913 -131.113602 -10.117602 4.476933 133.476013 -0.201334 8.707736 -10.046202 -11.857746 14.144864 
1.488605 15.900458 0.152407 -0.075644 -25.351543 89.814423 0.000000 0.000000 0.000000 24.436235 -5.720724 4.085667 15.830832 0.535958 -0.023535 -38.594669 6.461275 3.989719 -38.755035 30.000000 25.000000 10.534677 -48.152882 -44.974140 -12.196971 16.274700 -17.551264 -7.621346 9.929695 -62.121265 26.541594 -30.000000 25.000000 -31.380693 51.245865 -0.318236 -14.599895 -5.346485 -58.658295 17.311712 -7.163764 -80.824112 -129.841949 24.062006 -4.791176 131.165619 10.636804 -0.105074 -11.808193 -20.555182 2.634130 -130.856308 -10.097308 4.444967 133.347794 0.403349 8.820320 -9.777378 -11.424635 13.400821 
1.344083 15.732047 0.147581 -0.257710 -24.570095 89.763779 0.000000 0.000000 0.000000 24.442024 -5.631379 4.096582 16.495144 0.604595 -0.023788 -38.236870 6.924950 4.373171 -38.902302 30.000000 25.000000 10.352201 -47.667534 -44.673298 -12.377617 15.363317 -18.122786 -6.779650 9.875648 -62.032715 26.329443 -30.000000 25.000000 -31.081623 51.325054 -0.236216 -12.617036 -5.223437 -62.304562 21.271515 -8.681157 -80.779655 -129.878479 24.012573 -4.833547 131.181244 10.706040 -0.091378 -11.073583 -20.366766 3.160762 -130.815079 -10.175925 4.433884 133.298752 0.530672 8.872062 -9.322690 -11.217131 12.919607 
1.218450 15.548667 0.101154 -0.053439 -23.974600 89.844063 0.000000 0.000000 0.000000 24.319389 -5.743812 4.079582 17.062597 0.853876 -0.004835 -37.794205 6.796514 4.244833 -39.131546 30.000000 25.000000 10.858542 -47.468410 -44.695728 -12.397245 14.129488 -20.199030 -6.135387 9.557624 -61.975060 25.718443 -30.000000 25.000000 -30.365112 51.568501 -0.131528 -11.242225 -5.442959 -63.794949 23.469431 -10.027230 -80.798019 -129.863419 23.991407 -4.818884 131.163895 10.374483 -0.149773 -10.362168 -20.463396 3.616768 -131.048309 -10.253593 4.416267 133.330154 0.188915 8.776260 -8.687606 -11.186141 12.981718 
1.055995 15.378447 0.080300 0.010634 -23.310547 89.699303 0.000000 0.000000 0.000000 24.170708 -5.714775 4.100405 17.804399 0.749422 -0.016451 -37.378860 6.640994 4.152359 -38.707886 30.000000 25.000000 10.890537 -47.705349 -44.839684 -12.559978 12.625050 -22.533770 -5.168230 9.345566 -61.940197 26.180229 -30.000000 25.000000 -29.792038 51.305775 0.648290 -9.851726 -5.152297 -66.156067 24.036682 -11.905478 -80.738121 -130.003784 24.119555 -4.834626 131.065613 10.267894 -0.199021 -9.430239 -20.504330 4.001401 -131.147903 -10.214657 4.428248 133.195953 0.100891 8.748622 -7.519352 -10.949281 13.803910 
0.906983 15.258618 0.089530 -0.084640 -22.626930 89.434357 0.000000 0.000000 0.000000 24.148315 -5.653269 4.111621 18.458439 0.673827 -0.022532 -37.061615 6.720137 4.068853 -38.153786 30.000000 25.000000 10.626807 -47.829319 -44.834576 -12.801582 11.219337 -24.608528 -3.744406 9.267591 -61.896751 26.816259 -30.000000 25.000000 -29.726101 51.097637 0.993219 -8.924368 -4.715396 -68.336700 24.064301 -13.692603 -80.646156 -130.111938 24.324638 -4.780406 131.021576 10.451618 -0.141667 -8.694607 -20.409140 4.304692 -131.031708 -10.146259 4.437329 132.996429 0.305476 8.793066 -6.373492 -10.675198 14.671627 
0.812089 15.173956 0.073883 -0.073543 -21.640608 89.253731 0.000000 0.000000 0.000000 24.574310 -5.732284 4.073729 18.986755 0.864535 -0.013650 -36.604328 6.788266 4.021127 -38.045624 30.000000 25.000000 10.458522 -47.570656 -44.644413 -13.119764 9.938254 -26.970045 -1.779402 9.203640 -61.828018 26.805147 -30.000000 25.000000 -29.789173 51.099491 0.946252 -8.042673 -4.507163 -69.869987 23.822376 -15.360867 -80.518120 -129.786362 24.499386 -4.652045 131.197113 10.539436 -0.122090 -8.314522 -20.232845 4.725433 -130.620117 -10.097436 4.437154 132.929962 0.335310 8.805279 -5.569308 -10.612857 15.195925 
0.671476 15.092363 0.025534 -0.187843 -20.644432 89.235344 0.000000 0.000000 0.000000 24.919552 -5.547868 4.088150 19.690920 1.017344 -0.001152 -36.217804 6.868926 3.964930 -38.073967 30.000000 25.000000 10.434429 -47.186222 -44.438831 -13.575290 8.361128 -30.557419 0.444529 9.042139 -61.778713 26.568209 -30.000000 25.000000 -29.737616 51.078308 1.015122 -6.823463 -4.352199 -71.631897 23.549236 -17.440607 -80.322716 -129.501816 24.414083 -4.606897 131.232788 10.496900 -0.142534 -7.780437 -20.036240 5.201089 -130.251633 -10.253574 4.396608 132.808685 0.286028 8.781635 -5.032439 -10.565032 15.261690 
0.484886 14.976052 -0.021056 -0.354975 -20.712528 89.333328 0.000000 0.000000 0.000000 24.277769 -5.237325 4.194204 20.190609 1.220783 0.002177 -36.122784 6.388089 3.721954 -38.040134 30.000000 25.000000 10.602643 -47.129734 -44.455933 -13.978527 7.154315 -33.758389 1.776562 8.937803 -61.790058 26.107794 -30.000000 25.000000 -29.724962 51.411850 0.527745 -6.257645 -4.183386 -72.183304 23.521950 -18.584635 -80.213020 -130.031479 24.167765 -4.800745 130.855896 10.236945 -0.194337 -6.969395 -20.063574 5.407954 -130.744522 -10.507610 4.331074 132.463562 0.266674 8.781617 -4.529309 -10.463223 15.071306 
0.353951 14.847243 -0.054657 -0.458878 -20.546272 89.337349 0.000000 0.000000 0.000000 23.918571 -5.091007 4.249402 20.417234 1.436027 0.015149 -36.015152 5.739338 3.730430 -37.980549 30.000000 25.000000 10.417386 -46.998844 -44.332508 -14.568508 6.423170 -35.803715 2.958527 9.070432 -61.773815 25.815165 -30.000000 25.000000 -29.831152 51.581951 0.213137 -5.752990 -3.981160 -72.547989 23.514853 -19.200418 -80.153175 -130.409760 24.052698 -4.930048 130.696609 10.099726 -0.239407 -6.330232 -20.003878 5.699772 -131.055786 -10.615029 4.302271 132.305359 0.247202 8.769258 -4.062815 -10.333496 14.973945 
0.269890 14.760676 -0.043173 -0.580896 -19.706097 89.081009 0.000000 0.000000 0.000000 24.252726 -5.104575 4.227520 20.573696 1.451304 0.016496 -35.728710 5.633419 4.044082 -37.504379 30.000000 25.000000 9.577070 -46.583008 -43.899059 -15.695107 5.863977 -36.478100 4.153343 9.303176 -61.727833 26.174292 -30.000000 25.000000 -30.017733 51.381229 0.385299 -5.489198 -3.801150 -73.166069 24.087723 -19.339211 -80.194504 -130.265457 24.148190 -4.870940 130.893402 10.334301 -0.168463 -6.127059 -19.561977 6.288962 -130.646957 -10.507540 4.339600 132.263504 0.471526 8.846251 -3.550384 -10.159377 14.983190 
0.172474 14.701752 -0.024022 -0.507149 -19.345001 88.885689 0.000000 0.000000 0.000000 24.269819 -5.282240 4.184871 20.632132 1.433896 0.020842 -35.629665 6.307356 4.237169 -37.130085 30.000000 25.000000 9.240755 -46.519196 -43.777252 -16.381132 5.378688 -37.388981 4.713024 9.476359 -61.703976 26.335340 -30.000000 25.000000 -29.979954 51.468529 0.275265 -5.619591 -3.765966 -72.964417 24.723389 -19.095581 -80.291756 -130.312057 24.296904 -4.844546 130.921387 10.323838 -0.192159 -6.002962 -19.235226 6.962575 -130.573120 -10.331672 4.376672 132.023666 0.647571 8.864739 -2.914757 -10.135857 15.060818 
